<?xml version="1.0" encoding="UTF-8"?> <svg xmlns="http://www.w3.org/2000/svg" width="636" height="611" viewBox="0 0 636 611" fill="none"><g clip-path="url(#clip0_215_69)"><path d="M453.85 610.178C453.041 609.894 452.191 609.55 451.96 609.413C451.487 609.134 449.207 608.223 445.829 606.963C444.579 606.497 442.798 605.82 441.871 605.459C440.944 605.099 439.122 604.398 437.821 603.901C436.521 603.405 434.909 602.75 434.24 602.445C433.571 602.14 432.945 601.891 432.849 601.891C432.753 601.891 432.295 601.718 431.831 601.506C430.896 601.08 429.881 600.654 426.698 599.351C423.141 597.896 416.948 594.633 414.768 593.067C412.572 591.488 412.415 591.194 412.408 588.621C412.408 588.014 412.244 587.384 412.048 587.221C411.852 587.058 410.744 586.743 409.585 586.522C406.4 585.912 405.693 585.62 404.384 584.372C403.722 583.742 402.418 582.642 401.486 581.929C399.797 580.638 399.787 580.623 398.906 577.892C397.503 573.546 396.004 571.579 393.257 570.483C391.794 569.899 391.559 569.678 389.945 567.357C388.989 565.983 387.343 563.99 386.288 562.927C382.381 558.991 379.082 557.636 373.847 557.815C372.259 557.869 370.96 557.83 370.96 557.725C370.96 557.621 371.768 556.085 372.755 554.312C373.839 552.363 374.712 551.087 374.961 551.088C375.187 551.088 376.274 551.457 377.377 551.908C380.783 553.299 382.277 553.725 384.887 554.052C387.113 554.33 387.534 554.472 388.528 555.274C391.808 557.924 394.517 557.854 397.772 555.035C399.859 553.226 400.86 551.244 400.416 549.797C400.255 549.272 400.149 548.82 400.181 548.793C400.211 548.767 400.901 548.414 401.71 548.01C402.519 547.606 403.481 547.067 403.849 546.813C404.604 546.291 406.37 545.286 408.929 543.922C411.334 542.64 415.346 540.201 419.653 537.402L423.291 535.038L425.001 535.484C426.597 535.899 426.812 535.899 428.239 535.481C431.275 534.593 434.633 530.358 433.881 528.366C433.615 527.661 433.684 527.567 435.495 526.189C438.19 524.138 444.161 518.737 447.324 515.488C450.161 512.574 453.753 508.198 455.322 505.745C457.905 501.707 465.948 486.012 469.424 478.225C471.052 474.579 470.945 474.681 475.91 472.068C477.528 471.217 480.355 469.677 482.194 468.645C484.032 467.614 486.739 466.114 488.21 465.312C489.68 464.511 491.736 463.328 492.778 462.683C493.82 462.039 494.806 461.512 494.971 461.512C495.18 461.512 495.222 462.19 495.11 463.771C494.857 467.363 495.11 468.004 499.726 475.416C503.23 481.043 506.921 487.627 508.364 490.82C511.41 497.566 516.961 508.264 518.615 510.578C520.176 512.76 523.104 517.666 523.104 518.097C523.104 518.194 523.484 518.888 523.948 519.639C524.413 520.391 525.157 521.668 525.602 522.476C527.611 526.13 530.711 530.792 533.686 534.634C534.944 536.259 534.915 536.876 533.627 535.863C532.469 534.952 529.857 532.672 526.984 530.064C520.589 524.26 514.346 516.87 509.392 509.241C508.254 507.489 504.818 502.742 504.093 501.92C503.913 501.718 502.44 499.913 500.819 497.909C497.059 493.265 493.325 489.065 488.905 484.508C485.934 481.445 485.333 480.942 484.936 481.183C484.478 481.459 482.365 485.431 480.677 489.187C477.724 495.756 466.2 519.176 464.22 522.634C462.742 525.213 462.04 526.155 459.677 528.72C457.75 530.813 456.344 532.064 451.689 535.829C450.48 536.807 441.462 542.857 439.145 544.244C438.189 544.817 436.925 545.576 436.337 545.931C433.63 547.567 430.616 549.347 429.519 549.959C428.857 550.329 427.353 551.177 426.176 551.845C425 552.513 422.292 553.981 420.16 555.108C418.028 556.235 414.853 557.915 413.106 558.842C410.903 560.01 409.454 560.993 408.376 562.047C405.38 564.979 405.625 565.673 412.402 573.446C421.522 583.905 431.773 594.401 435.668 597.267C440.807 601.048 451.138 607.723 452.893 608.396C453.715 608.712 455.99 610.251 455.99 610.492C455.99 610.825 455.477 610.75 453.85 610.178ZM179.51 582.254C179.51 582.169 179.87 580.024 180.31 577.489C182.553 564.563 184.323 552.511 184.323 550.156C184.323 549.657 184.495 548.489 184.705 547.561C184.915 546.632 185.163 545.031 185.257 544.001C185.57 540.549 186.316 537.183 186.768 537.183C186.925 537.183 187.538 537.566 188.13 538.035C189.645 539.235 190.591 539.906 192.813 541.357C194.286 542.32 194.751 542.771 194.751 543.236C194.751 543.832 193.367 548.039 190.937 554.83C190.279 556.669 188.812 561 187.678 564.456C186.543 567.912 185.122 571.995 184.52 573.53C182.925 577.598 180.537 582.221 179.978 582.324C179.721 582.372 179.51 582.339 179.51 582.254ZM111.626 555.538C111.386 555.249 111.402 554.984 111.695 554.395C113.859 550.033 116.25 542.783 116.58 539.578C117.031 535.197 120.205 530.09 131.503 515.571C136.509 509.138 137.076 508.337 138.219 506.099C138.726 505.106 139.171 504.294 139.208 504.294C139.246 504.294 139.935 504.543 140.742 504.847C141.581 505.163 143.377 505.499 144.937 505.633C146.437 505.761 147.914 505.999 148.218 506.162C148.872 506.512 150.935 508.683 151.257 509.36C151.66 510.207 148.4 514.754 143.423 520.287C140.637 523.385 136.269 527.296 131.187 531.245C129.308 532.705 127.142 534.466 126.375 535.157C125.607 535.849 124.258 536.775 123.377 537.216C121.766 538.021 120.645 539.165 119.743 540.926C119.48 541.441 119.042 542.193 118.771 542.597C118.5 543.002 118.042 543.682 117.755 544.108C117.467 544.534 117.147 545.226 117.043 545.645C116.94 546.065 116.273 547.636 115.561 549.138C114.849 550.64 114.267 552.031 114.267 552.228C114.267 552.425 113.966 552.995 113.598 553.493C113.231 553.992 112.93 554.538 112.93 554.707C112.93 554.876 112.707 555.217 112.433 555.464C112.01 555.847 111.891 555.858 111.626 555.538ZM362.057 551.186C361.964 551.093 361.958 550.511 362.042 549.893C362.178 548.903 362.096 548.655 361.363 547.82C359.925 546.181 358.409 546.305 356.765 548.194C355.943 549.139 355.704 549.27 355.079 549.113C354.345 548.929 351.438 546.326 351.442 545.858C351.442 545.719 352.677 544.83 354.183 543.882C361.82 539.074 369.382 532.357 373.87 526.395C374.662 525.343 375.544 524.318 375.829 524.118C376.522 523.632 378.495 523.111 382.056 522.474C385.742 521.814 386.767 521.811 388.03 522.455C388.584 522.737 389.805 523.108 390.743 523.278C391.681 523.448 393.09 523.911 393.873 524.307L395.297 525.027L385.334 534.987C377.799 542.519 375.338 544.831 375.236 544.473C374.973 543.547 374.154 542.274 373.648 542.003C372.852 541.577 371.713 541.677 370.763 542.257C369.949 542.753 367.483 545.791 367.483 546.298C367.483 546.535 365.906 549.016 365.285 549.756C364.247 550.993 362.596 551.725 362.057 551.186ZM316.814 548.169C315.784 547.904 313.859 547.435 312.536 547.126C311.212 546.816 308.837 546.258 307.259 545.884C305.68 545.51 303.831 545.204 303.15 545.204C301.535 545.204 297.338 544.051 294.65 542.869C289.615 540.656 284.552 537.552 279.179 533.385L275.769 530.741L276.17 529.964C277.041 528.281 276.387 526.474 274.616 525.67C273.181 525.019 272.521 525.024 271.204 525.696C270.617 525.996 269.99 526.16 269.811 526.06C269.632 525.961 268.163 525.012 266.545 523.951C264.927 522.891 262.942 521.599 262.133 521.081C260.19 519.835 254.192 516.261 253.175 515.744C252.734 515.52 251.651 514.918 250.769 514.407C249.887 513.897 247.987 512.796 246.548 511.962C245.109 511.128 243.877 510.445 243.809 510.445C243.742 510.445 241.851 509.441 239.607 508.214C234.7 505.53 227.151 501.628 219.351 497.745C216.189 496.171 213.319 494.624 212.973 494.308C212.628 493.992 211.676 492.59 210.859 491.193C210.042 489.796 208.831 487.751 208.168 486.648C204.503 480.552 204.358 480.241 204.827 479.525C205.064 479.163 205.391 478.925 205.553 478.996C207.069 479.661 213.622 482.498 218.281 484.506C221.443 485.869 224.872 487.374 225.902 487.85C230.176 489.829 236.792 492.298 241.678 493.736C243.001 494.126 244.626 494.631 245.287 494.858C246.679 495.335 249.043 496.756 248.956 497.063C248.922 497.178 249.187 497.51 249.541 497.799C251.099 499.073 248.889 499.312 244.988 498.291C243.608 497.931 242.209 497.556 241.878 497.458C241.337 497.299 241.277 497.372 241.277 498.199C241.277 500.118 242.012 501.762 243.584 503.36C244.41 504.198 245.522 505.071 246.055 505.3C247.52 505.927 250.053 505.856 251.324 505.152C251.901 504.833 253.413 504.034 254.684 503.376C255.954 502.718 257.688 501.573 258.535 500.831C259.383 500.089 260.17 499.482 260.283 499.482C261.179 499.482 267.492 502.494 269.754 504.001C271.302 505.033 271.542 506.461 271.209 512.664C270.965 517.203 270.978 517.483 271.511 518.719C272.104 520.099 273.298 521.222 275.205 522.195C276.141 522.673 276.686 522.765 278.007 522.672C278.909 522.608 279.888 522.474 280.182 522.375C280.645 522.22 280.931 522.596 282.321 525.195C284.043 528.415 284.451 528.9 287.675 531.569C293.236 536.171 295.837 537.634 309.728 543.975C318.565 548.008 319.867 548.649 319.221 548.651C318.926 548.651 317.843 548.434 316.814 548.169ZM225.233 544.522C218.072 544.061 210.076 543.077 204.391 541.958C199.704 541.036 199.766 541.066 191.008 535.449C190.052 534.836 188.788 534.029 188.2 533.656C187.612 533.282 185.386 531.545 183.254 529.796C181.121 528.047 178.549 525.964 177.539 525.166L175.702 523.716L176.91 523.363C179.246 522.682 180.432 520.364 179.417 518.466C176.685 513.359 175.199 512.067 170.353 510.59C168.858 510.135 167.917 509.696 167.746 509.376C167.598 509.1 167.477 507.693 167.477 506.248C167.477 504.804 167.362 503.22 167.222 502.73C166.968 501.847 166.972 501.842 167.556 502.254C167.88 502.483 169.048 503.234 170.151 503.923C172.817 505.588 174.891 506.902 176.034 507.649C176.549 507.985 179.978 509.976 183.654 512.073C189.314 515.301 192.501 516.935 202.906 521.942C206.844 523.837 213.236 526.197 217.329 527.269C219.252 527.772 220.208 527.824 227.49 527.823C231.911 527.823 237.513 527.696 239.94 527.541C243.25 527.331 244.941 527.341 246.712 527.583L249.072 527.906L247.841 528.499C247.163 528.826 246.085 529.152 245.445 529.224C244.088 529.377 243.091 530.032 242.458 531.187C241.801 532.386 242.02 536.191 242.821 537.487C243.832 539.123 244.422 539.275 248.362 538.91C249.427 538.811 250.839 538.862 251.638 539.029C252.41 539.19 253.673 539.446 254.445 539.597C255.217 539.749 257.528 540.317 259.579 540.861L263.309 541.849L261.317 542.321C252.449 544.424 237.691 545.324 225.233 544.522ZM339.759 528.191C339.437 528.118 337.889 526.928 336.319 525.545C331.593 521.384 327.747 518.781 322.823 516.411C319.386 514.756 312.189 510.825 311.642 510.304C311.592 510.256 311.631 509.967 311.727 509.662C311.861 509.241 312.127 509.107 312.829 509.107C314.865 509.107 316.947 507.458 316.947 505.847C316.947 504.684 315.989 503.139 314.638 502.127C312.978 500.884 313.072 500.456 314.843 501.194C315.339 501.4 316.346 501.656 317.081 501.763C318.787 502.01 319.437 502.35 322.208 504.44C323.454 505.38 325.157 506.537 325.992 507.01C326.826 507.483 327.931 508.202 328.445 508.607C329.984 509.818 332.403 511.178 334.428 511.971C336.115 512.631 336.669 512.715 339.274 512.702C342.117 512.687 342.279 512.656 344.114 511.716C347.582 509.942 349.477 507.114 350.253 502.556C350.807 499.303 351.082 498.725 353.058 496.651C354.298 495.35 354.697 494.707 355.049 493.442C355.29 492.572 356.011 490.416 356.649 488.652L357.81 485.443H358.702C359.586 485.443 359.593 485.451 359.464 486.513C359.393 487.101 359.349 489.597 359.368 492.06C359.398 495.867 359.491 496.829 359.997 498.478C360.915 501.468 361.618 502.96 362.862 504.561C364.525 506.7 365.882 507.707 368.36 508.641C370.451 509.429 370.749 509.469 374.436 509.467C377.116 509.464 378.85 509.329 380.051 509.029C381.007 508.79 383.173 508.283 384.864 507.903C386.555 507.523 388.661 507.045 389.543 506.841C390.426 506.637 392.438 506.263 394.014 506.008L396.881 505.546L399.763 506.324C402.536 507.072 402.849 507.1 407.993 507.053C417.014 506.971 433.579 505.393 445.561 503.475C447.253 503.205 449.388 502.901 450.307 502.802C451.813 502.639 451.979 502.669 451.979 503.108C451.979 503.377 451.687 503.904 451.331 504.279C450.975 504.655 449.982 505.879 449.125 506.999C447.287 509.402 442.129 514.965 440.663 516.126C440.032 516.626 439.259 516.969 438.655 517.016C437.21 517.13 433.451 517.595 430.855 517.981C429.369 518.202 425.619 518.315 420.026 518.307C412.929 518.295 410.658 518.194 406.713 517.711C400.329 516.93 392.718 516.913 386.813 517.669C381.046 518.407 375.191 519.544 371.094 520.724C370.358 520.935 368.614 521.431 367.217 521.825C365.819 522.219 363.654 522.902 362.404 523.343C356.465 525.439 355.567 525.77 355.318 525.957C354.913 526.261 350.717 527.458 348.9 527.787C347.112 528.112 340.669 528.396 339.759 528.191ZM246.162 527.104C246.422 527.036 246.783 527.041 246.964 527.115C247.145 527.189 246.934 527.244 246.491 527.239C246.05 527.231 245.901 527.172 246.162 527.104ZM220.42 523.531C219.17 523.416 217.365 523.182 216.41 523.01C215.454 522.838 214.031 522.584 213.248 522.446C212.465 522.308 211.563 522.03 211.243 521.829C210.922 521.627 210.36 521.373 209.992 521.264C209.625 521.155 208.814 520.717 208.19 520.29C207.567 519.863 206.575 519.343 205.985 519.135C204.82 518.724 196.189 514.443 193.463 512.923L191.773 511.982L192.527 511.195C193.204 510.489 193.281 510.222 193.281 508.577C193.281 507.097 193.165 506.589 192.679 505.932C192.206 505.291 192.077 504.759 192.076 503.436C192.068 497.402 189.011 486.983 184.602 477.982L183.027 474.767L183.943 473.754C185.123 472.447 185.222 470.81 184.195 469.589C183.556 468.829 183.469 468.806 181.712 468.932L179.891 469.063L178.582 466.825C177.862 465.594 176.814 463.902 176.253 463.064C175.691 462.227 175.232 461.435 175.232 461.305C175.232 461.175 176.2 460.86 177.383 460.606C179.255 460.204 179.688 459.996 180.725 459.002C181.572 458.19 181.917 457.647 181.917 457.122C181.917 456.102 180.637 454.402 179.51 453.923C177.878 453.23 175.494 452.421 175.083 452.421C174.604 452.421 168.488 449.519 167.037 448.603C166.045 447.977 165.94 447.765 164.581 443.68C162.902 438.634 161.708 436.356 159.448 433.892C157.268 431.515 156.172 430.956 153.868 431.05C152.897 431.09 151.475 431.101 150.708 431.076C149.143 431.025 149.328 431.214 145.558 425.825C143.755 423.247 143.591 422.686 142.751 416.19C141.772 408.61 141.707 396.728 142.624 392.66C142.757 392.072 142.868 391.196 142.872 390.713C142.879 389.557 143.57 389.273 144.252 390.145C144.528 390.499 147.277 394.579 150.361 399.211C159.563 413.036 160.949 414.924 164.262 418.149C169.754 423.493 174.907 425.379 181.982 424.632C185.863 424.223 193.226 422.36 198.629 420.421C199.658 420.052 201.463 419.415 202.639 419.007C205.966 417.851 206.529 417.649 208.388 416.94C212.755 415.276 217.802 413.212 219.803 412.272C221.007 411.707 222.096 411.244 222.222 411.244C222.348 411.244 223.448 410.755 224.666 410.158C225.884 409.561 227.142 409.111 227.461 409.157C227.976 409.231 227.86 409.433 226.437 410.941C224.357 413.146 221.787 415.308 216.365 419.418C211.498 423.107 208.084 425.425 200.25 430.362C193.641 434.527 191.264 436.174 189.495 437.816C185.073 441.919 183.376 446.647 184.821 450.842C185.232 452.035 189.65 461.399 191.179 464.32C191.41 464.761 192.362 466.593 193.294 468.391C194.226 470.188 195.298 472.189 195.678 472.836C196.248 473.81 196.321 474.137 196.096 474.728C195.635 475.94 196.731 477.803 198.818 479.357C199.507 479.871 200.698 481.572 202.72 484.932C205.619 489.748 205.628 489.77 205.138 490.376C204.464 491.207 204.487 492.906 205.179 493.599C205.755 494.175 206.789 494.293 207.573 493.873C207.996 493.647 208.353 494.063 210.268 497.015C212.548 500.53 214.501 503.458 216.945 507.026C217.902 508.423 219.565 510.192 222.101 512.507C224.16 514.388 225.955 515.998 226.09 516.086C226.23 516.177 226.098 516.949 225.785 517.882C225.027 520.132 225.062 521.607 225.902 522.745C226.27 523.243 226.57 523.687 226.57 523.732C226.57 523.873 222.801 523.747 220.42 523.531ZM474.782 511.447C474.922 510.835 476.783 506.536 478.169 503.626C479.505 500.817 480.784 498.049 481.338 496.763C481.634 496.077 482.158 495.334 482.503 495.113C483.469 494.493 489.356 492.262 490.025 492.262C490.441 492.262 491.185 492.925 492.49 494.46C497.002 499.766 499.072 502.452 498.988 502.891C498.888 503.408 497.945 503.94 493.354 506.064C488.318 508.395 477.341 512.048 475.374 512.048C474.755 512.048 474.665 511.957 474.782 511.447ZM405.319 503.076C405.025 503.008 404.123 502.818 403.314 502.655C402.505 502.492 401.375 502.121 400.803 501.831C400.019 501.433 399.481 501.345 398.621 501.474C396.767 501.753 396.751 500.833 398.587 499.501C399.108 499.122 400.717 497.85 402.162 496.673C403.607 495.497 405.209 494.212 405.722 493.819C406.235 493.425 408.28 491.832 410.265 490.279C412.25 488.726 414.764 486.762 415.85 485.914C416.937 485.067 418.201 484.063 418.658 483.683C419.115 483.304 420.332 482.415 421.361 481.709C424.446 479.592 425.429 478.69 426.291 477.185C427.797 474.552 427.228 471.529 424.794 469.235C424.098 468.579 422.347 467.642 419.356 466.324C411.288 462.767 406.874 460.344 399.698 455.53C392.468 450.68 387.563 448.721 381.053 448.083C379.325 447.914 377.911 447.7 377.911 447.607C377.911 447.188 380.064 446.482 382.033 446.256C390.084 445.33 397.132 446.785 409.329 451.89C426.881 459.236 431.845 460.885 437.271 461.168C440.345 461.328 440.346 461.328 442.619 462.63C445.549 464.309 446.513 464.586 449.437 464.586C451.524 464.586 452.043 464.489 453.347 463.849C454.173 463.443 455.395 462.63 456.062 462.044C457.426 460.842 458.248 460.708 459.277 461.517C460.995 462.868 464.31 463.236 466.853 462.357C471.172 460.864 476.199 456.118 478.657 451.212C479.534 449.463 479.182 449.69 485.401 446.869C490.532 444.542 500.985 439.346 504.494 437.379C512.858 432.69 517.718 429.754 521.365 427.188C523.891 425.411 527.604 422.441 528.567 421.428C529.436 420.514 530.325 420.331 530.316 421.069C530.298 422.537 529.5 428.38 528.963 430.974C528.16 434.855 528.368 434.626 521.115 439.592C519.929 440.405 518.198 441.608 517.268 442.266C516.338 442.924 515.106 443.764 514.529 444.131C513.951 444.499 511.944 445.831 510.069 447.091C502.545 452.147 500.688 453.325 491.283 459.011C482.202 464.501 478.052 466.736 463.609 473.914C448.064 481.639 444.907 483.433 435.557 489.855C432.767 491.771 426.937 496.28 422.977 499.586C421.071 501.176 419.206 502.597 418.832 502.743C418.142 503.012 406.299 503.305 405.319 503.076ZM159.404 494.527C159.326 494.449 158.253 494.2 157.019 493.974C153.31 493.294 150.432 492.254 149.159 491.133C147.985 490.1 146.354 487.22 146.354 486.179C146.354 485.854 146.183 485.134 145.975 484.579C145.334 482.874 145.207 480.123 145.703 478.684C146.447 476.526 146.483 474.708 145.83 472.38C145.507 471.229 145.298 470.233 145.366 470.165C145.53 470.001 151.712 472.943 152.287 473.459C152.535 473.682 152.937 474.545 153.18 475.376C154.821 480.994 158.73 492.24 159.63 493.933C159.968 494.569 159.824 494.947 159.404 494.527ZM514.531 489.762L511.741 488.384L509.678 484.775C508.544 482.789 507.611 481.079 507.605 480.974C507.598 480.87 508.271 480.027 509.096 479.103C512.798 474.954 514.059 472.409 517.25 462.641C519.651 455.292 521.699 451.4 525.159 447.608C528.902 443.507 530.476 440.567 531.927 434.97C532.705 431.969 533.799 425.968 533.799 424.704C533.799 424.108 533.882 424.053 534.56 424.202C535.176 424.337 535.495 424.206 536.231 423.515C537.167 422.636 538.958 421.687 539.699 421.677C540.297 421.669 541.451 420.379 541.968 419.14C542.329 418.276 542.376 417.61 542.222 415.531L542.032 412.981L538.933 409.839C536.838 407.716 535.642 406.697 535.244 406.697C534.679 406.697 534.647 406.563 534.481 403.555C534.226 398.959 533.91 395.005 533.261 388.311L532.684 382.359L534.277 379.621C537.107 374.758 539.141 370.337 540.395 366.322C541.061 364.189 541.73 362.293 541.882 362.107C542.447 361.419 542.843 362.378 543.543 366.13C543.932 368.221 544.361 370.473 544.495 371.135C544.786 372.567 545.948 380.438 546.37 383.836C546.805 387.333 547.361 394.475 547.722 401.215C548.091 408.077 547.903 426.152 547.442 428.222C547.279 428.957 547.092 429.815 547.026 430.128C546.95 430.495 546.4 430.945 545.472 431.399C541.816 433.188 538.902 438.304 537.942 444.622C537.621 446.735 537.618 447.432 537.919 449.167C538.117 450.295 538.467 451.668 538.698 452.219C539.11 453.203 539.101 453.249 538.247 454.759C536.94 457.072 535.103 460.057 533.52 462.442C531.847 464.963 531.284 466.564 531.63 467.818C531.966 469.035 533.299 470.893 535.49 473.2L537.361 475.169L536.181 475.001C535.532 474.909 534.098 474.655 532.995 474.436C529.842 473.812 527.678 473.904 525.851 474.739C523.879 475.642 522.991 476.493 521.94 478.491C521.097 480.094 521.097 480.098 521.164 483.839L521.233 487.582L519.276 489.361L517.32 491.139L514.531 489.762ZM178.44 480.477C177.485 480.053 174.416 478.75 171.622 477.582C163.548 474.207 157.915 471.61 151.167 468.153C142.685 463.807 140.665 462.661 139.044 461.271C135.661 458.372 132.476 456.333 125.631 452.685C121.182 450.314 117.965 448.01 117.295 446.714C117.024 446.19 116.925 445.316 116.979 443.906C117.156 439.217 117.044 436.77 116.591 435.433C115.751 432.954 114.96 432.306 109.465 429.592C106.715 428.233 103.631 426.859 102.612 426.537C100.469 425.861 96.853 425.346 95.9096 425.583C95.5076 425.683 95.0876 425.59 94.8041 425.341C93.3051 424.014 89.2209 421.994 85.5231 420.75C84.7877 420.502 82.4415 419.714 80.309 418.998C76.5075 417.721 67.9741 415.253 65.0679 414.589C64.2591 414.404 62.6347 413.985 61.4582 413.658C60.2817 413.331 58.6573 412.896 57.8485 412.691C57.0396 412.487 54.6331 411.849 52.5007 411.274C48.1125 410.091 46.4883 409.688 39.5324 408.054C34.2377 406.81 30.5505 406.103 27.3662 405.72C24.0618 405.322 23.4078 405.122 23.7254 404.608C23.9302 404.277 26.6971 403.68 31.4878 402.933C38.3261 401.867 47.6056 402.495 55.442 404.555C57.1332 404.999 59.3592 405.551 60.3887 405.781C61.4181 406.011 63.223 406.419 64.3994 406.689C70.1554 408.009 71.5043 408.168 76.9667 408.168C82.0682 408.168 82.3698 408.138 83.5177 407.537C86.8663 405.781 87.7894 403.544 87.1196 398.809C86.7579 396.252 85.7948 393.269 83.926 388.916C82.116 384.7 82.0217 384.88 85.1794 386.53C89.034 388.544 88.9725 388.461 93.3643 397.606C94.3884 399.739 95.7583 402.205 96.4088 403.088C97.0591 403.97 99.4678 406.403 101.761 408.495C105.962 412.327 107.228 413.692 108.398 415.655C109.529 417.551 113.487 423.08 115.289 425.281C124.481 436.507 137.446 447.043 152.638 455.629C155.286 457.126 161.881 460.442 162.21 460.442C162.304 460.442 163.892 461.164 165.74 462.047C167.587 462.929 169.219 463.651 169.365 463.651C169.512 463.651 170.353 464.015 171.235 464.46C172.608 465.153 173.017 465.547 174.083 467.201C176.943 471.638 181.503 480.33 181.278 480.916C181.07 481.458 180.429 481.359 178.44 480.477ZM143.873 445.735C143.498 445.44 142.711 444.437 142.123 443.507C140.706 441.264 137.191 434.202 136.611 432.433L136.15 431.03H133.631C131.275 431.03 131.113 430.996 131.113 430.484C131.113 429.541 128.62 418.088 126.953 411.377C126.319 408.821 125.792 406.039 125.182 402.018C124.532 397.737 124.398 389.194 124.805 378.087C125.299 364.643 123.072 334.528 120.535 320.331C118.938 311.396 117.901 306.591 115.628 297.613C113.824 290.484 113.804 291.022 115.968 288.111C118.721 284.406 121.824 279.557 123.841 275.806C126.56 270.749 127.077 270.363 127.459 273.101C127.544 273.709 128.233 276.493 128.989 279.287C129.746 282.081 130.539 285.089 130.75 285.972C131.688 289.885 134.667 294.282 137.274 295.604C137.981 295.962 139.395 296.385 140.415 296.543C142.04 296.795 142.549 296.76 144.512 296.258C147.785 295.423 152.226 293.098 155.749 290.377C157.321 289.163 160.362 286.488 163.529 283.533C164.967 282.192 166.985 280.53 168.013 279.839C172.28 276.977 180.579 273.883 180.579 275.155C180.579 275.309 180.204 275.64 179.746 275.89C175.793 278.051 171.497 282.267 168.507 286.922C167.368 288.694 164.818 291.032 160.612 294.159C154.038 299.047 151.858 301.356 147.082 308.49C145.388 311.021 143.293 313.969 142.428 315.041C138.422 320.003 138.189 320.707 138.415 327.149C138.566 331.418 138.92 335.582 140.199 348.139C142.28 368.558 142.204 376.34 139.822 386.777C139.621 387.659 139.2 389.507 138.887 390.883C136.834 399.908 137.215 407.998 140.455 424.211C142.005 431.968 144.37 442.583 145.057 444.865C145.484 446.287 145.015 446.632 143.873 445.735ZM128.892 319.724C131.965 316.475 133.235 309.365 131.76 303.671C131.25 301.701 130.938 301.189 129.826 300.497C128.48 299.659 126.565 299.915 125.346 301.096C123.987 302.413 123.427 303.808 122.937 307.095C122.109 312.644 122.996 316.636 125.708 319.565C126.506 320.427 127.249 321.133 127.359 321.133C127.469 321.133 128.159 320.499 128.892 319.724ZM485.815 441.745C485.731 441.609 486.132 440.431 486.706 439.127C488.136 435.877 492.601 424.621 493.949 420.869C495.442 416.713 495.499 416.591 495.917 416.591C496.541 416.591 499.582 414.481 501.248 412.892C503.248 410.985 505.189 408.422 505.189 407.688C505.189 407.38 505.494 406.809 505.867 406.419C507.164 405.065 506.985 402.689 505.512 401.724C504.989 401.381 504.293 401.28 502.671 401.311C501.489 401.334 500.291 401.425 500.008 401.515C499.542 401.663 499.511 401.581 499.673 400.645C500.13 398.014 500.406 393.215 500.239 390.79C499.679 382.611 497.371 377.713 489.781 368.595C487.295 365.607 481.595 359.858 480.255 358.985C479.427 358.446 479.256 357.496 479.987 357.501C481.892 357.512 485.786 359.42 490.305 362.553C492.34 363.964 494.269 365.299 494.592 365.52C494.914 365.74 495.957 366.472 496.908 367.146C499.62 369.069 504.468 371.269 508.937 372.607C512.038 373.535 512.21 373.509 513.462 371.924C515.943 368.787 515.75 365.396 512.844 361.027C510.703 357.809 507.094 354.099 501.846 349.723C494.41 343.523 491.528 340.758 487.274 335.748C486.171 334.449 484.664 332.705 483.926 331.872C480.483 327.99 470.847 315.643 470.573 314.763C470.384 314.156 470.397 314.151 471.139 314.541C471.557 314.761 472.561 315.529 473.369 316.247C478.966 321.218 488.955 328.503 498.37 334.48C504.069 338.098 511.645 341.75 516.419 343.182C519.979 344.25 522.568 344.545 524.921 344.15C526.054 343.96 527.322 343.629 527.738 343.413C528.719 342.907 530.528 341.011 531.98 338.967C532.613 338.076 533.6 336.824 534.173 336.186C535.276 334.957 539.097 331.957 539.3 332.16C539.367 332.226 539.252 332.757 539.046 333.34C538.733 334.225 538.73 334.507 539.027 335.053C539.222 335.412 539.46 336.156 539.555 336.707C539.65 337.258 539.826 337.769 539.945 337.842C540.064 337.916 541.107 337.06 542.262 335.939C544.518 333.751 546.44 332.339 548.761 331.165C550.159 330.458 550.395 330.426 554.466 330.393C557.019 330.37 558.798 330.465 558.927 330.626C559.185 330.948 559.737 332.854 560.681 336.685C561.187 338.736 561.31 339.675 561.12 340.029C560.975 340.3 559.552 341.116 557.957 341.841C550.665 345.159 548.051 346.534 546.351 347.947C542.867 350.841 540.272 355.165 537.501 362.691C536.631 365.056 535.742 367.369 535.527 367.833C535.312 368.296 535.136 368.79 535.136 368.93C535.136 369.558 531.948 376.112 529.604 380.302C528.187 382.834 526.047 386.71 524.848 388.916C523.649 391.122 522.301 393.589 521.852 394.398C515.813 405.279 509.254 418.706 505.198 428.49C503.139 433.456 503.096 433.53 501.898 434.205C499.701 435.442 486.45 441.993 486.145 441.993C486.048 441.993 485.9 441.881 485.815 441.745ZM633.251 407.566C632.882 407.162 632.043 406.368 631.387 405.801C629.902 404.52 625.446 400.199 615.62 390.512C608.09 383.088 606.451 381.588 603.054 379.006C601.002 377.447 595.163 373.523 593.906 372.859C590.531 371.076 586.119 368.996 585.71 368.996C585.025 368.996 584.436 369.74 584.089 371.044C583.724 372.418 582.278 376.013 581.121 378.425C580.449 379.826 580.096 380.269 579.554 380.392C577.877 380.773 573.952 382.074 572.972 382.574C572.383 382.874 571.043 383.489 569.994 383.942C567.89 384.849 564.593 386.646 563.346 387.566C562.905 387.892 561.762 388.608 560.806 389.157C559.85 389.707 558.66 390.409 558.162 390.718L557.257 391.28L557.748 390.499C558.018 390.07 558.56 389.297 558.951 388.782C559.343 388.268 559.865 387.485 560.113 387.044C560.361 386.603 561.101 385.4 561.759 384.37C563.274 381.999 566.644 375.1 567.571 372.472C568.818 368.935 569.603 365.355 569.901 361.839C570.266 357.546 570.123 356.506 567.739 346.134C567.131 343.487 566.54 340.9 566.427 340.385C566.314 339.87 565.955 338.487 565.629 337.31C565.303 336.134 564.818 334.329 564.552 333.299C564.285 332.27 563.949 331.127 563.804 330.759C563.66 330.391 563.275 329.188 562.95 328.085C562.625 326.982 562.053 325.177 561.679 324.074C561.304 322.971 560.548 320.745 559.997 319.128C556.986 310.275 553.135 301.438 549.122 294.17C546.336 289.125 543.311 284.665 540.255 281.095L538.555 279.11L539.185 278.685C540.218 277.989 542.098 275.955 542.37 275.239C542.509 274.873 542.623 273.837 542.623 272.937C542.623 271.324 542.604 271.282 541.287 270.013C540.112 268.88 539.812 268.725 538.799 268.725C537.042 268.725 534.813 270.327 533.251 272.714L532.836 273.348L530.521 270.703C528.046 267.875 527.858 267.455 527.522 264.008L527.362 262.367L528.234 262.063C529.335 261.679 531.532 259.361 531.926 258.168C532.408 256.707 531.896 255.389 530.24 253.822C529.18 252.82 528.534 252.43 527.699 252.289L526.58 252.1L526.546 250.72C526.527 249.961 526.485 248.346 526.454 247.131C526.417 245.669 526.507 244.832 526.721 244.655C527.052 244.38 528.772 246.135 534.722 252.816C538.718 257.304 546.809 267.532 551.749 274.34C552.656 275.59 553.722 277.034 554.117 277.549C554.513 278.064 555.15 278.966 555.533 279.554C555.917 280.143 556.957 281.647 557.844 282.897C560.619 286.808 564.333 292.438 568.071 298.405C572.691 305.778 572.766 305.901 573.156 306.694C573.336 307.062 573.858 307.964 574.315 308.7C574.772 309.435 575.328 310.398 575.55 310.839C575.772 311.28 576.977 313.566 578.227 315.919C580.655 320.489 581.972 323.188 583.447 326.615C583.954 327.791 584.482 328.994 584.62 329.289C586.044 332.316 588.347 340.533 588.347 342.585C588.347 343.704 589.389 345.497 592.71 350.091C593.433 351.091 593.953 351.981 593.866 352.068C593.676 352.258 590.493 351.219 589.079 350.505C588.525 350.225 586.987 349.774 585.661 349.502C583.336 349.025 583.241 349.025 582.991 349.491C582.849 349.757 582.732 350.493 582.732 351.126C582.732 352.201 582.852 352.391 584.537 353.982C587.053 356.359 588.176 357.074 591.481 358.406C593.066 359.045 594.788 359.82 595.307 360.129C596.185 360.65 596.308 360.66 597.046 360.279C597.482 360.052 598.088 359.635 598.391 359.351C598.695 359.067 599.019 358.834 599.112 358.834C599.205 358.834 600.042 359.781 600.972 360.938C601.902 362.096 604.55 365.074 606.857 367.556C610.934 371.944 611.735 372.902 615.56 377.952C618.032 381.215 619.069 382.724 630.723 400.012C632.755 403.026 634.636 405.774 634.903 406.118C635.375 406.727 635.372 406.766 634.813 407.522C634.496 407.95 634.166 408.301 634.08 408.301C633.993 408.301 633.62 407.971 633.251 407.566ZM576.247 319.378C577.302 318.272 577.335 317.691 576.404 316.585C575.123 315.062 574.005 315.012 572.504 316.411C571.231 317.598 571.703 319.446 573.474 320.212C574.559 320.681 575.184 320.494 576.247 319.378ZM119.474 385.236C118.519 383.71 115.957 378.049 114.787 374.878C112.656 369.104 111.241 366.798 106.481 361.341C100.949 355 97.8341 350.448 94.7939 344.262C91.5084 337.577 91.4846 337.532 89.7099 334.77C88.4868 332.866 85.44 328.828 81.9964 324.547C80.4903 322.675 79.0523 320.809 78.8011 320.402C78.5497 319.995 77.9357 319.028 77.4366 318.253C76.4881 316.779 74.1591 311.946 74.1591 311.451C74.1591 311.293 73.9331 310.67 73.6571 310.066C73.3812 309.461 73.0184 308.425 72.8511 307.764C72.1733 305.082 71.2723 300.575 71.0872 298.94C70.649 295.07 68.454 290.279 66.1032 288.063C64.7623 286.799 61.3112 285.081 59.2564 284.655C55.9278 283.966 53.6317 283.89 50.2278 284.357C46.0719 284.928 44.0962 285.447 37.928 287.587C29.8542 290.387 21.015 292.706 13.863 293.899C9.17302 294.682 1.62052 294.756 0.513001 294.031C-0.473834 293.384 -0.0530488 292.941 1.91533 292.554C3.34683 292.272 11.2486 289.678 15.373 288.136C20.0151 286.4 26.0774 283.495 31.1798 280.563C35.1744 278.267 40.1589 276.403 47.0192 274.64C54.1621 272.805 54.6249 272.67 58.4258 271.317C63.7323 269.428 66.4179 267.92 68.9983 265.379C70.662 263.741 71.3793 262.8 71.9731 261.476C73.8875 257.209 74.2435 254.401 74.0958 244.728C73.9722 236.644 73.9234 236.35 72.141 232.952C71.1219 231.01 67.9335 228.122 60.1203 222.066C58.9821 221.183 57.193 219.738 56.1447 218.853C51.7788 215.17 47.4244 211.871 43.4095 209.206C39.8655 206.853 38.8639 206.111 38.8639 205.839C38.8639 205.451 39.5557 205.606 41.5678 206.445C47.1667 208.781 55.8663 211.885 60.1212 213.065C63.2756 213.94 71.0032 219.518 78.158 226.084C79.1952 227.036 80.2604 227.815 80.5252 227.815C81.2559 227.815 83.2973 226.42 84.0762 225.389C84.4569 224.885 85.4111 223.389 86.1966 222.066C88.6144 217.992 92.9867 211.513 95.3272 208.536C98.7307 204.207 102.358 200.428 102.907 200.639C103.206 200.754 103.299 200.971 103.181 201.279C102.806 202.254 102.308 208.615 101.799 218.936L101.623 222.49L100.15 224.952C96.4127 231.193 95.1626 234.439 94.7307 239.02C94.0016 246.752 93.1289 250.694 90.996 255.888C87.6007 264.157 85.2191 270.775 84.3559 274.34C84.1957 275.002 83.8599 277.479 83.6099 279.844C83.187 283.846 83.1854 284.468 83.5872 288.801C84.4483 298.087 87.6346 307.149 93.0788 315.796C95.3553 319.411 97.761 323.72 100.761 329.556C102.198 332.35 104.457 336.742 105.783 339.316C108.775 345.125 111.121 348.713 113.735 351.482C116.204 354.095 118.67 356.931 119.975 358.655L120.952 359.945V368.572C120.952 379.384 120.705 386.11 120.309 386.105C120.148 386.103 119.772 385.712 119.474 385.236ZM83.6333 260.524C85.1913 259.781 85.8574 257.571 85.0145 255.941C84.5806 255.102 82.8044 254.019 81.8625 254.019C81.0695 254.019 78.8478 255.391 78.4564 256.122C78.2987 256.417 78.1699 257.102 78.1699 257.646C78.1699 258.433 78.3642 258.818 79.1208 259.532C80.5854 260.913 82.1135 261.249 83.6333 260.524ZM93.5709 376.688C90.144 371.093 85.9408 363.314 85.9302 362.548C85.9226 361.875 84.8532 360.679 83.9101 360.285C82.76 359.804 81.3559 360.205 80.46 361.27C79.8304 362.018 79.7743 362.29 79.7743 364.599C79.7743 366.29 79.633 367.467 79.3424 368.193C78.9105 369.272 78.9141 369.626 79.402 374.009C79.5294 375.153 79.4837 375.413 79.1537 375.413C78.7052 375.413 78.4151 374.302 77.7225 369.934C77.4009 367.905 77.3339 366.136 77.444 362.581C77.625 356.74 78.3629 352.98 80.882 345.064C83.189 337.815 83.7683 335.951 83.9367 335.238C84.1359 334.394 84.5937 334.295 85.173 334.971C86.0943 336.045 88.4827 340.599 89.6596 343.526C91.2155 347.396 93.1266 350.695 95.5019 353.612C96.1017 354.349 96.1353 354.55 95.9703 356.42C95.8728 357.528 95.5427 359.878 95.2371 361.643C94.7524 364.442 94.7021 365.516 94.8422 370.065C94.9306 372.933 95.1351 376.09 95.2966 377.08C95.4584 378.071 95.5514 379.066 95.5034 379.292C95.4558 379.517 94.586 378.346 93.5709 376.688ZM524.594 339.163C524.363 338.932 524.173 338.503 524.173 338.209C524.173 337.916 524.032 337.413 523.858 337.092C523.684 336.771 523.392 335.906 523.209 335.171C522.565 332.587 519.302 324.67 517.258 320.732C515.58 317.497 512.972 313.465 510.689 310.571C508.068 307.25 507.145 305.472 506.8 303.078C506.631 301.905 506.53 299.948 506.576 298.728L506.659 296.512L509.541 298.825C514.351 302.687 515.239 303.641 515.747 305.491C516.547 308.404 517.311 310.007 518.422 311.103C519.914 312.574 522.635 314.105 524.351 314.439C529.085 315.359 528.607 315.155 528.965 316.398C529.143 317.017 530.135 320.145 531.169 323.349C532.459 327.343 532.997 329.387 532.88 329.85C532.481 331.442 529.641 335.623 527.628 337.581C526.497 338.682 525.446 339.583 525.292 339.583C525.139 339.583 524.825 339.394 524.594 339.163ZM587.071 325.077C586.613 324.512 585.138 321.088 585.138 320.587C585.138 320.318 585.453 319.998 585.873 319.84C586.278 319.688 587.571 319.195 588.748 318.743C590.831 317.943 592.619 317.448 595.512 316.871C596.292 316.715 598.999 316.589 601.529 316.592C607.854 316.599 608.49 317.083 603.776 318.306C600.634 319.121 595.843 320.728 594.363 321.464C592.722 322.28 588.93 324.629 588.587 325.043C588.206 325.502 587.43 325.52 587.071 325.077ZM550.899 322.402C549.497 321.457 549.044 320.399 548.617 317.066C548.404 315.406 548.055 313.085 547.843 311.908C547.211 308.412 546.886 304.263 547.155 303.111C547.289 302.537 547.618 301.848 547.887 301.579C548.425 301.041 548.309 300.851 550.93 306.56C552.538 310.064 554.923 316.15 554.923 316.75C554.923 317.08 554.548 318.291 554.089 319.442C552.523 323.371 552.445 323.444 550.899 322.402ZM100.417 320.812C100.24 320.636 100.096 320.355 100.096 320.188C100.096 319.956 96.3054 313.371 94.4839 310.438C93.7105 309.192 92.1791 306.49 92.0058 306.065C91.8946 305.793 91.9283 304.83 92.0806 303.926C92.5979 300.856 93.1349 295.609 93.2888 292.121C93.3731 290.21 93.5614 288.117 93.7072 287.472C94.0613 285.903 96.5673 281.603 98.477 279.287C99.757 277.735 104.194 271.781 106.946 267.923C110.979 262.269 123.854 243.003 127.637 236.961C128.298 235.904 128.93 235.038 129.04 235.037C129.151 235.035 129.241 235.333 129.241 235.699C129.241 236.064 129.549 237.418 129.927 238.707C130.562 240.877 130.599 241.298 130.434 244.393C130.243 247.956 130.225 248.074 128.983 254.019C128.26 257.48 128.205 258.059 128.472 259.42C128.769 260.935 128.765 260.953 127.838 262.228C126.342 264.286 124.611 266.882 123.774 268.324C122.925 269.787 120.585 273.458 116.189 280.223C115.09 281.914 113.952 283.646 113.658 284.071C113 285.027 109.542 290.979 108.905 292.255C107.029 296.008 105.411 300.932 104.117 306.828C103.794 308.298 103.305 310.524 103.03 311.774C102.755 313.025 102.475 314.468 102.407 314.983C102.164 316.829 101.686 319.941 101.555 320.531C101.409 321.191 100.917 321.313 100.417 320.812ZM522.903 293.883C522.339 293.062 522.034 292.298 522.033 291.702C522.033 290.012 521.288 286.174 520.708 284.863C519.645 282.46 518.091 281.291 515.964 281.294C514.595 281.296 513.643 281.767 512.728 282.897C512.43 283.264 512.141 283.505 512.085 283.431C511.841 283.113 510.16 278.572 509.571 276.639L508.926 274.527L509.512 270.088C510.289 264.198 510.363 253.708 509.67 247.735C509.414 245.529 509.083 240.985 508.935 237.638C508.469 227.142 508.67 203.001 509.231 202.095C509.396 201.827 509.536 201.869 509.839 202.28C510.415 203.061 511.672 206.402 512.655 209.766C514.986 217.743 515.608 219.152 517.889 221.622C518.658 222.454 519.747 223.856 520.309 224.738C520.871 225.619 521.864 226.993 522.514 227.792C524.015 229.635 524.588 230.981 524.9 233.394C525.082 234.805 525.063 235.44 524.828 235.778C524.108 236.811 523.118 239.845 522.845 241.853C522.554 243.994 522.705 248.077 523.39 256.559C524.1 265.354 524.184 274.337 523.637 283.166C523.429 286.523 523.428 288.858 523.637 291.423C523.795 293.39 523.891 295.033 523.849 295.073C523.807 295.114 523.381 294.578 522.903 293.883ZM520.616 246.009C522.022 245.151 522.413 244.273 522.331 242.152C522.309 241.622 521.936 241.016 521.134 240.213C520.084 239.163 519.838 239.045 518.7 239.045C517.609 239.045 517.305 239.175 516.493 239.987C515.62 240.86 515.559 241.026 515.674 242.222C515.829 243.833 516.925 245.353 518.421 246.033C519.742 246.632 519.59 246.633 520.616 246.009ZM565.098 286.32C564.933 286.128 564.444 285.43 564.012 284.768C563.58 284.106 562.651 282.765 561.949 281.787C561.247 280.809 559.78 278.764 558.691 277.242C557.601 275.719 555.801 273.272 554.691 271.804C553.039 269.619 552.675 268.963 552.689 268.194C552.696 267.677 552.801 264.788 552.918 261.773C553.189 254.771 552.876 250.77 551.474 243.323C550.68 239.102 548.836 232.884 547.193 228.884C546.296 226.704 546.195 226.08 546.687 225.776C546.864 225.667 549 224.836 551.434 223.928C553.868 223.021 556.063 222.19 556.313 222.082C556.955 221.804 557.518 222.491 560.465 227.146C561.861 229.352 563.394 231.759 563.871 232.494C564.347 233.229 565.317 234.733 566.025 235.836C566.733 236.939 568.42 239.526 569.773 241.585C574.937 249.442 576.105 252.614 575.5 257.134C575.133 259.882 566.308 286.366 565.691 286.571C565.53 286.624 565.264 286.512 565.098 286.32ZM106.557 257.027C105.314 247.067 105.044 236.147 105.694 222.066C105.978 215.924 107.184 200.705 107.449 199.934C107.511 199.753 107.69 198.402 107.846 196.931C108.354 192.166 109.647 184.539 110.702 180.086C112.89 170.857 114.814 164.811 116.672 161.329C117.66 159.477 117.665 159.244 116.731 158.31C116.008 157.587 115.878 157.561 112.119 157.373C106.621 157.099 90.1057 155.366 83.9185 154.414C74.1913 152.917 69.26 151.996 64.1319 150.718C56.3405 148.777 52.3685 147.356 52.9915 146.733C53.1963 146.528 53.9541 146.571 55.6303 146.882C63.0511 148.261 72.431 148.396 82.3142 147.265C85.6967 146.879 90.6901 146.422 93.4108 146.25C96.1315 146.078 98.4211 145.9 98.4988 145.853C98.5766 145.806 101.765 145.634 105.585 145.47C115.835 145.031 117.887 144.512 124.315 140.731C127.941 138.598 130.821 137.036 134.835 135.024C138.146 133.365 138.086 133.336 138.583 136.831C139.727 144.858 140.734 153.366 140.738 155.025C140.738 155.212 139.674 156.496 138.374 157.877C134.436 162.06 133.136 163.644 131.122 166.717C125.548 175.218 122.164 185.959 120.507 200.407C119.898 205.712 119.802 224.241 120.356 229.686C121.269 238.683 121.285 238.956 120.951 239.612C119.905 241.662 107.654 259.627 107.299 259.63C106.972 259.632 106.813 259.073 106.557 257.027ZM146.782 240.048C146.555 238.865 145.321 236.489 144.026 234.741C142.395 232.54 140.824 229.452 140.502 227.815C140.328 226.934 140.251 224.079 140.307 220.699L140.402 215.054L143.342 209.335C144.959 206.19 147.922 200.629 149.927 196.978C151.933 193.327 153.573 190.252 153.573 190.145C153.573 190.038 153.964 189.581 154.442 189.13C155.225 188.392 157.163 187.306 163.868 183.849C167.893 181.774 175.203 178.566 175.496 178.747C175.845 178.963 175.6 179.899 175.023 180.556C174.796 180.815 173.854 182.259 172.931 183.765C172.008 185.271 170.332 188.007 169.206 189.845C164.371 197.743 161.229 205.926 161.724 209.33C161.976 211.067 162.351 211.526 164.581 212.835C166.703 214.082 171.521 216.896 175.365 219.134C176.689 219.905 178.374 220.849 179.109 221.233C179.844 221.616 181.288 222.41 182.318 222.997C188.527 226.534 191.846 228.127 202.104 232.495C204.358 233.454 209.963 235.634 211.01 235.958C211.349 236.063 211.577 236.289 211.518 236.461C211.443 236.679 210.411 236.757 208.068 236.723C204.871 236.676 199.264 235.837 193.949 234.611C192.993 234.391 190.827 233.917 189.136 233.558C182.103 232.066 180.147 231.529 174.029 229.413C169.095 227.706 165.799 226.902 162.528 226.606C158.894 226.277 155.397 227.659 153.318 230.247C152.469 231.302 148.904 237.636 147.97 239.748C147.355 241.14 147.008 241.227 146.782 240.048ZM503.258 237.121C499.782 232.405 494.255 224.227 492.066 220.56C488.731 214.973 486.475 212.565 482.728 210.59C479.542 208.911 474.951 208.36 471.364 209.226C468.992 209.798 468.784 209.773 469.098 208.946C469.477 207.95 469.417 205.975 468.984 205.14C468.026 203.297 465.436 202.622 463.621 203.743C462.428 204.48 461.235 206.733 461.445 207.852C461.642 208.9 463.03 210.639 463.981 211.03L464.68 211.316L463.877 211.609C461.822 212.359 457.515 214.671 452.394 217.773C449.314 219.64 445.76 221.57 444.497 222.064C442.175 222.971 438.243 224.146 436.403 224.482L435.401 224.666L435.393 223.232C435.393 222.444 435.286 221.636 435.16 221.437C434.986 221.162 435.971 220.547 439.258 218.877C444.837 216.044 448.475 213.876 452.484 210.996C454.986 209.199 460.165 204.642 462.009 202.615C463.467 201.011 463.775 200.808 465.534 200.29C470.187 198.921 474.842 195.805 476.575 192.901C477.476 191.391 477.51 191.237 477.49 188.784C477.463 185.77 476.969 184.287 475.033 181.423C474.126 180.082 473.382 179.324 472.407 178.749C471.064 177.958 471.042 177.923 470.738 176.155C469.866 171.067 466.005 161.666 461.538 153.748C455.656 143.325 447.509 132.104 438.558 122.1C435.493 118.675 435.489 118.455 438.508 119.147C441.988 119.945 445.696 120.868 447.563 121.403C448.592 121.698 450.349 122.176 451.466 122.466C453.882 123.092 455.4 123.692 456.089 124.295C457.336 125.386 467.34 139.364 473.629 148.802C479.966 158.313 484.37 166.488 485.799 171.396C485.991 172.058 486.286 172.952 486.454 173.384C486.762 174.174 487.612 178.452 487.935 180.832C488.17 182.571 489.484 187.451 490.288 189.578C492.546 195.547 496.141 202.487 501.903 211.994L504.711 216.629L504.809 222.69C504.891 227.829 504.977 230.607 505.281 237.95C505.304 238.451 505.178 238.909 505.007 238.968C504.835 239.027 504.049 238.196 503.258 237.121ZM535.558 224.828C533.923 224.186 531.401 222.466 529.798 220.9C529.1 220.218 527.98 219.155 527.31 218.539C526.64 217.922 526.009 217.158 525.908 216.84C525.737 216.303 525.787 216.277 526.62 216.467C527.813 216.74 530.908 216.646 532.73 216.282C534.886 215.852 544.992 213.272 550.244 211.811C551.861 211.361 554.629 210.682 556.394 210.302C558.158 209.923 560.023 209.503 560.538 209.37C563.549 208.59 572.698 207.014 577.517 206.444C583.853 205.694 595.085 205.327 595.414 205.859C595.727 206.365 595.149 206.589 589.817 208.026C586.105 209.027 579.438 210.943 573.506 212.715C571.889 213.198 569.422 213.912 568.025 214.301C562.612 215.811 543.66 222.206 541.402 223.285C540.804 223.57 540.235 223.804 540.137 223.804C540.038 223.804 539.252 224.146 538.389 224.564L536.82 225.324L535.558 224.828ZM535.738 208.763C530.003 201.565 520.688 193.46 511.072 187.303C509.969 186.597 508.464 185.627 507.729 185.147C505.029 183.386 493.754 177 492.197 176.35C491.105 175.893 490.559 175.072 490.23 173.385C489.6 170.158 487.009 163.683 485.421 161.369C484.746 160.385 484.707 159.631 485.33 159.631C485.585 159.631 486.425 159.876 487.198 160.176C487.97 160.475 489.296 160.972 490.144 161.279C490.992 161.586 492.167 162.022 492.755 162.247C494.163 162.786 501.89 166.297 502.916 166.864C515.861 174.015 525.972 182.166 536.233 193.723C539.457 197.353 543.431 202.165 545.03 204.373C545.545 205.084 546.306 206.073 546.722 206.572C548.039 208.15 547.802 208.338 543.024 209.502C542.142 209.717 540.762 210.075 539.958 210.297C537.577 210.956 537.447 210.909 535.738 208.763ZM124.501 199.538C124.638 198.302 125.664 192.414 126.4 188.642C126.922 185.963 127.884 182.359 128.327 181.42C128.768 180.484 129.092 180.261 132.316 178.681C136.246 176.754 137.851 175.674 139.338 173.957C143.062 169.655 145.089 162.721 144.657 155.763C144.336 150.601 142.552 137.484 141.11 129.683C138.199 113.941 137.299 110.541 133.857 102.311C133.189 100.713 132.174 98.5544 131.602 97.5141C130.355 95.2446 130.091 94.3879 130.641 94.3879C131.647 94.3879 136.285 101.152 139.212 106.889C142.212 112.769 144.264 117.722 146.387 124.202C146.82 125.525 147.592 127.781 148.101 129.215C148.611 130.649 149.464 133.056 149.998 134.563C151.691 139.349 154.571 146.41 155.991 149.257C159.705 156.704 163.73 160.7 167.517 160.7C170.612 160.7 178.177 157.755 200.567 147.834C201.77 147.301 203.366 146.599 204.912 145.923C207.773 144.671 210.166 143.7 212.691 142.768C215.863 141.596 220.206 139.499 222.025 138.26C222.687 137.809 223.318 137.439 223.429 137.439C223.895 137.436 223.536 138.421 222.007 141.349C220.168 144.868 218.002 147.89 216.39 149.186C214.841 150.431 214.271 151.482 214.28 153.08C214.287 154.023 214.481 154.731 214.946 155.486C215.308 156.074 215.605 156.699 215.606 156.874C215.606 157.456 213.293 157.549 209.525 157.117C202.634 156.327 199.968 156.646 197.902 158.509C195.875 160.337 195.396 162.561 196.222 166.315C196.432 167.271 196.608 168.451 196.614 168.936C196.629 170.299 195.553 170.62 190.072 170.888C185.518 171.11 183.177 171.407 182.269 171.877C182.001 172.014 181.32 172.211 180.753 172.314C180.187 172.416 179.345 172.668 178.881 172.874C178.418 173.08 177.197 173.565 176.168 173.952C168.685 176.763 155.845 183.098 141.541 191.037C140.144 191.812 137.593 193.178 135.874 194.072C134.154 194.966 131.002 196.848 128.87 198.253C126.738 199.659 124.851 200.809 124.677 200.809C124.457 200.809 124.403 200.418 124.501 199.538ZM268.963 199.226C268.736 198.787 268.55 198.262 268.55 198.058C268.55 197.256 266.534 191.386 265.041 187.84C262.712 182.309 259.097 175.238 256.502 171.135C254.254 167.58 249.322 159.048 247.843 156.155C247.429 155.346 246.685 154.07 246.189 153.319C245.693 152.569 245.287 151.865 245.287 151.755C245.287 151.358 242.391 146.649 241.841 146.153C241.531 145.873 241.277 145.547 241.277 145.429C241.277 145.311 242.171 144.028 243.263 142.577C245.234 139.961 246.684 138.701 248.14 138.34C248.896 138.153 250.526 136.929 253.309 134.46C254.118 133.742 255.863 132.305 257.186 131.267C259.258 129.642 259.704 129.4 260.395 129.526C260.836 129.607 262.28 129.808 263.604 129.974C266.198 130.298 267.213 130.588 267.213 131.006C267.213 131.152 266.555 131.757 265.751 132.351C262.023 135.105 258.738 139.295 257.837 142.446C256.887 145.768 257.294 149.832 258.994 154.016C259.323 154.824 260.658 157.652 261.96 160.299C264.439 165.339 264.981 166.581 266.04 169.658C267.806 174.786 268.911 181.273 269.474 189.835C270.101 199.349 269.998 201.228 268.963 199.226ZM519.266 172.8C518.608 172.248 517.488 171.402 516.777 170.92C516.065 170.437 514.581 169.408 513.478 168.633L511.472 167.223L511.394 165.299C511.351 164.24 511.386 163.374 511.474 163.374C511.561 163.374 511.992 163.56 512.43 163.787C513.588 164.385 516.296 165.178 518.239 165.487C519.167 165.635 520.344 166.015 520.856 166.331L521.787 166.906L521.749 169.753C521.727 171.318 521.651 172.87 521.576 173.201C521.379 174.078 520.637 173.949 519.266 172.8ZM393.421 161.605C392.171 161.258 390.366 160.785 389.41 160.555C385.25 159.553 375.408 156.376 370.826 154.556C368.465 153.618 363.353 151.106 362.202 150.319C361.798 150.043 361.205 149.648 360.885 149.443C360.564 149.237 359.12 148.166 357.677 147.063C352.194 142.874 346.91 139.927 340.745 137.62C332.359 134.482 326.044 133.672 319.621 134.908C311.737 136.427 307.229 136.94 301.911 136.926C294.167 136.903 289.264 135.677 282.722 132.12C274.669 127.741 266.309 125.728 252.507 124.843C244.755 124.347 233.014 124.882 225.501 126.074C224.104 126.295 221.938 126.591 220.688 126.731C219.438 126.871 217.843 127.068 217.145 127.168C214.974 127.479 215.38 126.696 220.145 121.399C224.013 117.099 226.93 114.141 227.689 113.748C228.204 113.482 229.45 113.371 231.972 113.367C236.656 113.36 244.875 112.898 246.082 112.572C247.172 112.279 248.627 111.28 249.24 110.405C250.015 109.299 249.721 107.527 248.244 104.396C247.5 102.819 246.892 101.324 246.892 101.075C246.892 100.393 247.565 99.9182 250.502 98.5311C251.972 97.8364 253.613 97.0412 254.148 96.7639C255.847 95.8829 255.693 95.7699 259.459 100.681C262.073 104.091 266.159 108.843 267.175 109.656C270.71 112.485 273.917 114.366 276.467 115.108C277.959 115.541 282.155 116.317 286.599 116.98C288.07 117.199 290.055 117.512 291.011 117.675C291.967 117.838 293.471 118.069 294.353 118.188C297.654 118.633 303.767 119.52 305.316 119.78C306.199 119.927 307.943 120.175 309.193 120.331C311.282 120.59 313.483 120.906 321.226 122.054C322.77 122.283 324.996 122.582 326.172 122.718C327.349 122.854 329.094 123.112 330.05 123.292C332.739 123.798 339.034 123.727 340.31 123.177C340.879 122.932 341.53 122.731 341.756 122.731C341.981 122.731 343.742 121.963 345.667 121.024C347.592 120.085 351.213 118.513 353.713 117.53C356.214 116.548 358.834 115.506 359.537 115.216C360.627 114.765 360.91 114.739 361.46 115.033C365.003 116.929 377.203 125.276 377.768 126.19C378.031 126.616 377.231 126.922 374.302 127.517C369.095 128.575 366.376 129.676 364.445 131.51C363.31 132.587 362.671 133.82 362.671 134.932C362.671 135.751 363.702 137.646 364.921 139.068C366.506 140.917 372.273 145.672 377.912 149.779C380.36 151.562 386.229 155.444 390.212 157.914C394.913 160.829 396.331 161.865 395.938 162.094C395.804 162.172 394.671 161.952 393.421 161.605ZM353.443 136.604C354.571 136.29 355.979 135 356.687 133.631C356.946 133.132 357.112 132.107 357.119 130.969C357.13 129.33 357.04 128.994 356.33 128.014C354.228 125.113 350.632 125.244 348.567 128.297C346.721 131.026 346.801 133.452 348.801 135.359C350.275 136.765 351.591 137.118 353.443 136.604ZM358.621 123.954C360.426 123.021 360.372 120.145 358.534 119.307C357.162 118.682 355.667 119.133 355.03 120.363C353.775 122.791 356.194 125.21 358.621 123.954ZM459.592 161.893C457.361 160.833 443.905 156.252 438.475 154.704C432.863 153.104 427.93 152.12 422.967 151.61L417.887 151.088L415.396 148.474C412.93 145.887 408.536 140.753 407.41 139.145C407.09 138.687 406.632 137.844 406.393 137.273C405.755 135.745 404.711 134.764 403.725 134.764C402.557 134.764 401.87 135.339 400.874 137.152L400.006 138.731L398.518 137.487C397.7 136.803 395.767 135.149 394.223 133.813C392.679 132.477 390.633 130.797 389.677 130.081C388.721 129.365 387.51 128.411 386.985 127.961C384.861 126.139 373.191 117.806 369.739 115.645C368.798 115.057 366.553 113.626 364.749 112.464C362.944 111.303 360.686 109.87 359.73 109.28C358.774 108.689 357.571 107.938 357.056 107.61C356.541 107.282 355.578 106.714 354.917 106.349C354.255 105.984 352.209 104.815 350.371 103.752C345.671 101.034 338.983 97.72 337.112 97.1833C334.584 96.4584 334.249 95.9484 335.865 95.2877C336.417 95.0621 339.113 93.7956 341.856 92.4729L346.844 90.068L348.775 90.9155C355.366 93.8081 361.823 92.5135 365.072 87.6482C367.413 84.1425 368.159 79.3685 367.758 70.4568C367.439 63.3664 367.212 61.3242 365.322 48.5309C365.074 46.8512 364.057 42.0137 363.186 38.3702C362.905 37.1937 362.604 35.6294 362.518 34.8941L362.36 33.5571L362.906 34.2256C363.492 34.9433 364.299 36.8814 366.304 42.381C369.42 50.9291 369.452 51.0265 371.336 57.7558C372.016 60.1823 372.769 62.8295 373.009 63.6383C373.249 64.4472 373.593 65.8911 373.772 66.847C374.112 68.6552 374.692 71.5302 375.364 74.735C375.579 75.7644 376.188 78.7123 376.716 81.286C378.822 91.5526 381.398 100.638 383.177 104.078C384.058 105.782 385.412 107.899 386.251 108.886C387.075 109.856 392.271 113.162 397.496 116.043C397.899 116.265 401.629 118.384 405.785 120.751C409.941 123.119 414.063 125.454 414.945 125.942C420.787 129.169 426.774 132.415 428.716 133.409C429.966 134.048 431.125 134.678 431.292 134.808C431.458 134.938 436.031 137.27 441.452 139.988C452.548 145.553 452.139 145.254 454.832 149.774C456.194 152.063 460.453 160.205 460.911 161.4C461.152 162.027 460.437 162.294 459.592 161.893ZM175.105 153.76C175.018 153.619 175.657 152.446 176.524 151.153C177.391 149.86 178.803 147.658 179.663 146.261C180.522 144.864 182.019 142.578 182.989 141.181C183.959 139.784 184.987 138.257 185.273 137.788C189.309 131.179 200.386 116.653 206.905 109.419C212.614 103.085 213.433 102.352 215.202 101.999C216.559 101.728 216.842 101.751 217.707 102.207C218.519 102.634 219.042 102.697 220.821 102.577C223.635 102.388 225.419 101.824 226.718 100.712C228.282 99.3737 228.947 97.7819 229.672 93.6485C230.024 91.6449 230.374 89.8062 230.451 89.5626C230.595 89.1107 231.726 88.3346 237.4 84.7962C243.353 81.0833 249.508 77.6193 259.225 72.5132C262.83 70.619 266.641 68.3376 269.008 66.6567C271.116 65.1607 274.012 62.0437 274.913 60.3017C276.123 57.9637 278.564 51.6968 280.955 44.7875C282.227 41.111 283.567 37.3484 283.931 36.4263C284.295 35.5042 284.594 34.62 284.594 34.4613C284.594 34.3026 284.759 33.7936 284.962 33.3302C285.165 32.8668 285.542 31.886 285.8 31.1507C286.336 29.6256 287.62 26.2253 289.134 22.3269C289.705 20.8563 290.707 18.5099 291.361 17.1128C293.472 12.6006 294.991 7.53513 295.412 3.60972C295.736 0.585526 295.867 0 296.222 0C296.415 0 296.706 0.378935 296.867 0.84204C297.231 1.88538 297.245 9.60375 296.886 11.1588C296.743 11.7813 296.502 13.1651 296.352 14.2338C296.012 16.6519 294.354 21.9243 292.714 25.8029C289.687 32.9606 288.355 37.1518 287.658 41.7126C287.149 45.0446 287.16 47.6069 287.714 54.4983C288.101 59.3161 288.122 60.652 287.847 63.1292C287.463 66.579 286.33 69.8099 284.934 71.4358C284.289 72.1878 284.614 73.2388 285.663 73.7877C289.763 75.9349 297.226 77.8229 306.385 79.0301C307.121 79.1268 308.444 79.3718 309.327 79.5737C310.209 79.7759 311.352 79.9449 311.867 79.949C314.104 79.9679 313.855 80.9127 311.374 81.8174C309.535 82.4881 309.918 82.314 303.734 85.2897L298.677 87.7235L294.821 87.4124C289.712 87.0002 276.641 87.2405 272.828 87.8164C269.174 88.3685 265.006 89.2077 261.999 89.9967C259.842 90.5625 258.182 91.1064 253.309 92.8426C251.079 93.6369 246.289 95.969 243.148 97.7895C236.619 101.573 226.774 108.932 221.79 113.755C218.671 116.772 213.263 123.332 208.056 130.414C204.861 134.759 204.227 135.661 201.703 139.456C199.1 143.369 197.896 144.829 197.07 145.074C196.75 145.169 195.887 145.53 195.152 145.877C194.416 146.224 192.07 147.246 189.938 148.148C187.805 149.05 185.571 150.017 184.973 150.297C184.376 150.578 183.774 150.806 183.637 150.805C183.382 150.803 179.973 152.213 177.431 153.372C175.909 154.067 175.352 154.16 175.105 153.76ZM521.232 148.772C521.011 148.716 519.473 148.568 517.814 148.443C514.972 148.23 514.652 148.144 512.289 146.971C510.91 146.287 509.662 145.726 509.516 145.726C509.2 145.726 507.299 144.659 502.782 141.947C500.013 140.284 492.133 135.95 488.007 133.821C487.455 133.536 487.039 133.241 487.083 133.164C487.955 131.655 489.146 128.299 489.146 127.352C489.146 124.76 484.612 120.195 482.552 120.712C479.911 121.375 478.203 125.49 479.283 128.587C479.447 129.058 479.537 129.482 479.484 129.53C479.43 129.578 478.423 129.156 477.247 128.593C476.07 128.029 473.905 127.062 472.434 126.443C470.963 125.825 469.64 125.232 469.493 125.126C468.968 124.748 460.223 121.285 455.588 119.619C450.492 117.787 443.497 115.885 438.48 114.967L436.613 114.625L439.467 111.927C442.376 109.175 443.69 107.297 443.69 105.888C443.69 104.846 442.195 102.015 441.201 101.174C439.809 99.9973 437.635 99.1176 436.496 99.2705C434.478 99.5411 432.583 100.719 430.67 102.891C429.673 104.023 428.189 105.68 427.371 106.572C426.553 107.464 424.644 109.721 423.129 111.587C421.547 113.535 420.128 115.033 419.798 115.104C419.482 115.173 417.9 115.488 416.282 115.805C414.665 116.122 412.439 116.623 411.336 116.917C407.598 117.915 408.45 118.178 399.778 113.345C392.05 109.039 389.105 107.138 388.757 106.231C388.555 105.705 389.226 105.083 389.995 105.083C390.26 105.083 391.17 104.847 392.016 104.557C394.087 103.849 401.969 101.82 408.662 100.273C411.111 99.7065 416.835 98.6552 420.293 98.1366C423.698 97.626 429.709 97.3748 432.326 97.6338C435.821 97.9796 443.266 99.544 444.218 100.133C444.393 100.241 445.157 100.483 445.917 100.671C448.895 101.409 458.723 104.993 463.877 107.221C465.201 107.793 467.247 108.674 468.423 109.179C475.933 112.403 494.45 121.462 500.262 124.755L501.351 125.372L501.243 127.595C501.141 129.702 501.177 129.882 501.945 131.074C502.871 132.512 504.522 133.499 505.999 133.499C507.102 133.499 508.774 132.539 509.806 131.312C510.189 130.857 510.634 130.485 510.796 130.485C510.957 130.485 511.717 130.804 512.484 131.193C514.59 132.261 520.242 134.171 523.104 134.782C525.662 135.327 529.115 135.554 543.024 136.088C546.554 136.224 550.164 136.282 551.046 136.217C551.928 136.152 554.816 135.973 557.463 135.818C562.28 135.537 567.636 134.803 570.246 134.066C572.319 133.481 573.908 133.302 573.908 133.655C573.908 134.446 565.804 137.542 557.454 139.94C553.879 140.966 541.884 143.968 539.816 144.354C539.08 144.491 536.333 145.036 533.711 145.566C531.084 146.096 528.142 146.529 527.16 146.53C525.193 146.53 524.011 147.048 523.221 148.254C522.801 148.895 522.269 149.034 521.232 148.772ZM415.588 111.247C416.774 110.642 418.823 108.458 419.455 107.126C419.698 106.614 419.892 105.539 419.892 104.703C419.892 103.313 419.809 103.11 418.788 102.003C417.429 100.527 416.486 100.425 414.892 101.58C410.896 104.475 409.947 109.371 413.02 111.244C414.086 111.894 414.318 111.895 415.588 111.247ZM157.026 141.84C154.753 136.828 151.553 128.049 151.782 127.453C151.851 127.273 153.094 126.662 154.545 126.094C155.996 125.527 158.386 124.59 159.857 124.012C171.01 119.629 182.976 116.216 192.879 114.594C194.277 114.365 195.689 114.103 196.018 114.012C197.134 113.703 197.037 114.606 195.784 116.2C195.142 117.016 194.377 118.03 194.083 118.453C193.789 118.877 192.336 120.885 190.854 122.916C189.373 124.947 187.499 127.571 186.691 128.747C182.759 134.47 183.107 134.119 180.579 134.908C173.384 137.155 167.063 139.599 160.844 142.538C159.623 143.115 158.442 143.587 158.221 143.587C157.984 143.587 157.492 142.868 157.026 141.84ZM290.61 113.724C288.345 113.525 284.923 112.877 280.251 111.761C278.431 111.327 275.959 110.331 275.844 109.986C275.79 109.824 276.744 108.934 277.964 108.008C279.184 107.083 281.024 105.547 282.053 104.596C283.824 102.96 289.564 98.2645 291.011 97.2692C291.379 97.0164 292.281 96.3797 293.016 95.8544C295.127 94.3466 299.597 91.4192 300.771 90.7762C301.359 90.4538 302.622 89.7388 303.578 89.187C310.819 85.0075 317.251 82.5826 324.457 81.3157C325.37 81.1551 327.151 80.4264 329.048 79.4372L332.147 77.8212L334.144 78.7314C338.636 80.7784 342.496 81.4244 345.552 80.6406C347.658 80.1005 350.842 78.1708 351.963 76.7559L352.782 75.7216L353.806 76.2162C356.602 77.5672 359.546 77.5821 361.991 76.2577L363.473 75.4549L363.466 77.234C363.458 79.2487 363.093 80.1901 362.129 80.6529C361.763 80.8283 359.78 81.4757 357.721 82.0915C355.662 82.7074 353.472 83.4398 352.855 83.7193C352.239 83.9986 351.655 84.2272 351.559 84.2272C351.463 84.2272 351.005 84.3985 350.542 84.6079C350.078 84.8173 348.797 85.3758 347.694 85.8491C346.591 86.3223 343.041 88.0009 339.806 89.5792C331.872 93.4495 329.992 94.278 327.372 95.0581C325.63 95.5769 316.18 98.8782 315.846 99.085C315.69 99.1813 315.872 98.6762 316.253 97.9625C316.815 96.9081 316.944 96.299 316.944 94.7111C316.944 92.4758 316.608 91.6443 315.21 90.4169C314.409 89.7133 314.032 89.575 312.918 89.575C311.738 89.575 311.454 89.6956 310.454 90.6212C309.613 91.3996 309.163 92.132 308.697 93.4835C307.423 97.1744 307.671 99.084 309.649 100.82C310.162 101.271 310.54 101.675 310.488 101.717C310.436 101.76 309.43 102.437 308.254 103.222C307.077 104.007 304.972 105.566 303.575 106.687C300.658 109.026 296.314 112.46 295.183 113.321C294.405 113.912 293.586 113.984 290.61 113.724ZM410.533 95.267C410.313 95.1853 409.651 94.7339 409.063 94.2638C407.949 93.3735 404.234 90.7081 402.572 89.6071L401.612 88.9707L402.407 88.5375C402.845 88.2994 403.92 87.6163 404.796 87.0197C407.097 85.4531 409.024 84.5851 411.569 83.969C412.8 83.6708 414.424 83.0738 415.178 82.6417C416.776 81.7265 419.67 79.2656 421.174 77.5425C423.971 74.3392 426.735 69.0857 428.934 62.7918C429.945 59.9013 430.152 59.5385 431.755 57.8451C435.803 53.5692 440.734 45.7784 444.758 37.3006C447.726 31.0473 447.818 30.8752 448.101 31.017C448.424 31.178 448.329 32.9854 447.829 36.2311C446.428 45.3129 443.573 53.0063 438.205 62.1677C431.398 73.782 428.368 80.7066 428.004 85.4755C427.849 87.5042 427.886 87.7421 428.529 88.8179C428.91 89.4549 429.769 90.5726 430.439 91.3018C431.109 92.0309 431.657 92.7157 431.657 92.8235C431.657 93.2794 430.875 93.4088 428.465 93.3521C425.087 93.2727 418.753 93.9787 414.563 94.902C412.005 95.4656 411.254 95.5335 410.533 95.267ZM394.668 84.8511C394.571 84.7532 394.49 84.5484 394.49 84.3966C394.49 84.2291 394.614 84.245 394.806 84.4366C394.98 84.6105 395.061 84.8152 394.984 84.8912C394.908 84.9671 394.766 84.949 394.668 84.8511ZM392.618 83.5061C392.251 83.4437 390.626 82.8659 389.009 82.2223C387.391 81.5786 384.984 80.7955 383.661 80.4818C382.337 80.1681 381.116 79.7697 380.947 79.5961C380.707 79.3493 379.784 75.9358 379.784 75.2956C379.784 74.8634 386.146 77.8362 389.276 79.7309C390.453 80.4431 392.077 81.6219 392.886 82.3506C394.379 83.6959 394.355 83.8011 392.618 83.5061ZM236.872 79.7848C236.648 79.5599 236.464 79.2537 236.464 79.1041C236.464 78.9545 236.089 78.0307 235.632 77.051C235.175 76.0713 234.646 74.8486 234.457 74.3339C234.267 73.8191 233.734 72.564 233.272 71.5445C232.095 68.9487 229.653 62.7652 228.301 58.9591C227.674 57.1943 226.797 54.7276 226.352 53.4776C224.559 48.4461 225.099 47.8745 227.528 52.2319C228.361 53.7259 229.731 56.0312 230.573 57.3547C231.415 58.6783 232.804 60.9043 233.661 62.3014C235.545 65.3722 237.469 68.4029 240.413 72.9351C241.629 74.8074 242.59 76.519 242.549 76.7388C242.48 77.1054 241.371 77.9163 239.088 79.2718C237.603 80.1535 237.309 80.2215 236.872 79.7848Z" fill="white"></path></g><defs><clipPath id="clip0_215_69"><rect width="635.245" height="610.69" fill="white"></rect></clipPath></defs></svg> 